%TF.GenerationSoftware,KiCad,Pcbnew,9.0.6*%
%TF.CreationDate,2025-12-11T01:20:01-06:00*%
%TF.ProjectId,KeyboardPCB,4b657962-6f61-4726-9450-43422e6b6963,rev?*%
%TF.SameCoordinates,Original*%
%TF.FileFunction,Paste,Bot*%
%TF.FilePolarity,Positive*%
%FSLAX46Y46*%
G04 Gerber Fmt 4.6, Leading zero omitted, Abs format (unit mm)*
G04 Created by KiCad (PCBNEW 9.0.6) date 2025-12-11 01:20:01*
%MOMM*%
%LPD*%
G01*
G04 APERTURE LIST*
%ADD10R,2.200000X3.800000*%
G04 APERTURE END LIST*
D10*
%TO.C,A0*%
X362585000Y-91910000D03*
X360045000Y-91910000D03*
X357505000Y-91910000D03*
X354965000Y-91910000D03*
X352425000Y-91910000D03*
X349885000Y-91910000D03*
X347345000Y-91910000D03*
X344805000Y-91910000D03*
X342265000Y-91910000D03*
X339725000Y-91910000D03*
X337185000Y-91910000D03*
X334645000Y-91910000D03*
X332105000Y-91910000D03*
X329565000Y-91910000D03*
X327025000Y-91910000D03*
X324485000Y-91910000D03*
X321945000Y-91910000D03*
X319405000Y-91910000D03*
X316865000Y-91910000D03*
X314325000Y-91910000D03*
X362585000Y-111290000D03*
X360045000Y-111290000D03*
X357505000Y-111290000D03*
X354965000Y-111290000D03*
X352425000Y-111290000D03*
X349885000Y-111290000D03*
X347345000Y-111290000D03*
X344805000Y-111290000D03*
X342265000Y-111290000D03*
X339725000Y-111290000D03*
X337185000Y-111290000D03*
X334645000Y-111290000D03*
X332105000Y-111290000D03*
X329565000Y-111290000D03*
X327025000Y-111290000D03*
X324485000Y-111290000D03*
X321945000Y-111290000D03*
X319405000Y-111290000D03*
X316865000Y-111290000D03*
X314325000Y-111290000D03*
%TD*%
M02*
