%TF.GenerationSoftware,KiCad,Pcbnew,9.0.6*%
%TF.CreationDate,2025-12-11T01:20:01-06:00*%
%TF.ProjectId,KeyboardPCB,4b657962-6f61-4726-9450-43422e6b6963,rev?*%
%TF.SameCoordinates,Original*%
%TF.FileFunction,Legend,Bot*%
%TF.FilePolarity,Positive*%
%FSLAX46Y46*%
G04 Gerber Fmt 4.6, Leading zero omitted, Abs format (unit mm)*
G04 Created by KiCad (PCBNEW 9.0.6) date 2025-12-11 01:20:01*
%MOMM*%
%LPD*%
G01*
G04 APERTURE LIST*
%ADD10C,0.150000*%
%ADD11C,0.100000*%
%ADD12C,0.120000*%
G04 APERTURE END LIST*
D10*
X363389104Y-113636660D02*
X363389104Y-114112850D01*
X363674819Y-113541422D02*
X362674819Y-113874755D01*
X362674819Y-113874755D02*
X363674819Y-114208088D01*
X362674819Y-114731898D02*
X362674819Y-114827136D01*
X362674819Y-114827136D02*
X362722438Y-114922374D01*
X362722438Y-114922374D02*
X362770057Y-114969993D01*
X362770057Y-114969993D02*
X362865295Y-115017612D01*
X362865295Y-115017612D02*
X363055771Y-115065231D01*
X363055771Y-115065231D02*
X363293866Y-115065231D01*
X363293866Y-115065231D02*
X363484342Y-115017612D01*
X363484342Y-115017612D02*
X363579580Y-114969993D01*
X363579580Y-114969993D02*
X363627200Y-114922374D01*
X363627200Y-114922374D02*
X363674819Y-114827136D01*
X363674819Y-114827136D02*
X363674819Y-114731898D01*
X363674819Y-114731898D02*
X363627200Y-114636660D01*
X363627200Y-114636660D02*
X363579580Y-114589041D01*
X363579580Y-114589041D02*
X363484342Y-114541422D01*
X363484342Y-114541422D02*
X363293866Y-114493803D01*
X363293866Y-114493803D02*
X363055771Y-114493803D01*
X363055771Y-114493803D02*
X362865295Y-114541422D01*
X362865295Y-114541422D02*
X362770057Y-114589041D01*
X362770057Y-114589041D02*
X362722438Y-114636660D01*
X362722438Y-114636660D02*
X362674819Y-114731898D01*
D11*
%TO.C,D37*%
X110725000Y-82300000D02*
X111125000Y-82900000D01*
X111125000Y-82300000D02*
X111125000Y-81800000D01*
X111125000Y-82900000D02*
X111525000Y-82300000D01*
X111125000Y-83300000D02*
X111125000Y-82900000D01*
X111525000Y-82300000D02*
X110725000Y-82300000D01*
X111675000Y-82900000D02*
X110575000Y-82900000D01*
%TO.C,D11*%
X272650000Y-34675000D02*
X273050000Y-35275000D01*
X273050000Y-34675000D02*
X273050000Y-34175000D01*
X273050000Y-35275000D02*
X273450000Y-34675000D01*
X273050000Y-35675000D02*
X273050000Y-35275000D01*
X273450000Y-34675000D02*
X272650000Y-34675000D01*
X273600000Y-35275000D02*
X272500000Y-35275000D01*
%TO.C,D19*%
X82150000Y-63250000D02*
X82550000Y-63850000D01*
X82550000Y-63250000D02*
X82550000Y-62750000D01*
X82550000Y-63850000D02*
X82950000Y-63250000D01*
X82550000Y-64250000D02*
X82550000Y-63850000D01*
X82950000Y-63250000D02*
X82150000Y-63250000D01*
X83100000Y-63850000D02*
X82000000Y-63850000D01*
%TO.C,D25*%
X196450000Y-63250000D02*
X196850000Y-63850000D01*
X196850000Y-63250000D02*
X196850000Y-62750000D01*
X196850000Y-63850000D02*
X197250000Y-63250000D01*
X196850000Y-64250000D02*
X196850000Y-63850000D01*
X197250000Y-63250000D02*
X196450000Y-63250000D01*
X197400000Y-63850000D02*
X196300000Y-63850000D01*
%TO.C,D26*%
X215500000Y-63250000D02*
X215900000Y-63850000D01*
X215900000Y-63250000D02*
X215900000Y-62750000D01*
X215900000Y-63850000D02*
X216300000Y-63250000D01*
X215900000Y-64250000D02*
X215900000Y-63850000D01*
X216300000Y-63250000D02*
X215500000Y-63250000D01*
X216450000Y-63850000D02*
X215350000Y-63850000D01*
%TO.C,D2*%
X82150000Y-34675000D02*
X82550000Y-35275000D01*
X82550000Y-34675000D02*
X82550000Y-34175000D01*
X82550000Y-35275000D02*
X82950000Y-34675000D01*
X82550000Y-35675000D02*
X82550000Y-35275000D01*
X82950000Y-34675000D02*
X82150000Y-34675000D01*
X83100000Y-35275000D02*
X82000000Y-35275000D01*
%TO.C,D33*%
X372662500Y-63250000D02*
X373062500Y-63850000D01*
X373062500Y-63250000D02*
X373062500Y-62750000D01*
X373062500Y-63850000D02*
X373462500Y-63250000D01*
X373062500Y-64250000D02*
X373062500Y-63850000D01*
X373462500Y-63250000D02*
X372662500Y-63250000D01*
X373612500Y-63850000D02*
X372512500Y-63850000D01*
%TO.C,D71*%
X201212500Y-120400000D02*
X201612500Y-121000000D01*
X201612500Y-120400000D02*
X201612500Y-119900000D01*
X201612500Y-121000000D02*
X202012500Y-120400000D01*
X201612500Y-121400000D02*
X201612500Y-121000000D01*
X202012500Y-120400000D02*
X201212500Y-120400000D01*
X202162500Y-121000000D02*
X201062500Y-121000000D01*
%TO.C,D22*%
X139300000Y-63250000D02*
X139700000Y-63850000D01*
X139700000Y-63250000D02*
X139700000Y-62750000D01*
X139700000Y-63850000D02*
X140100000Y-63250000D01*
X139700000Y-64250000D02*
X139700000Y-63850000D01*
X140100000Y-63250000D02*
X139300000Y-63250000D01*
X140250000Y-63850000D02*
X139150000Y-63850000D01*
%TO.C,D42*%
X205975000Y-82300000D02*
X206375000Y-82900000D01*
X206375000Y-82300000D02*
X206375000Y-81800000D01*
X206375000Y-82900000D02*
X206775000Y-82300000D01*
X206375000Y-83300000D02*
X206375000Y-82900000D01*
X206775000Y-82300000D02*
X205975000Y-82300000D01*
X206925000Y-82900000D02*
X205825000Y-82900000D01*
%TO.C,D38*%
X129775000Y-82300000D02*
X130175000Y-82900000D01*
X130175000Y-82300000D02*
X130175000Y-81800000D01*
X130175000Y-82900000D02*
X130575000Y-82300000D01*
X130175000Y-83300000D02*
X130175000Y-82900000D01*
X130575000Y-82300000D02*
X129775000Y-82300000D01*
X130725000Y-82900000D02*
X129625000Y-82900000D01*
%TO.C,D54*%
X115487500Y-101350000D02*
X115887500Y-101950000D01*
X115887500Y-101350000D02*
X115887500Y-100850000D01*
X115887500Y-101950000D02*
X116287500Y-101350000D01*
X115887500Y-102350000D02*
X115887500Y-101950000D01*
X116287500Y-101350000D02*
X115487500Y-101350000D01*
X116437500Y-101950000D02*
X115337500Y-101950000D01*
%TO.C,D4*%
X120250000Y-34675000D02*
X120650000Y-35275000D01*
X120650000Y-34675000D02*
X120650000Y-34175000D01*
X120650000Y-35275000D02*
X121050000Y-34675000D01*
X120650000Y-35675000D02*
X120650000Y-35275000D01*
X121050000Y-34675000D02*
X120250000Y-34675000D01*
X121200000Y-35275000D02*
X120100000Y-35275000D01*
%TO.C,D61*%
X248837500Y-101350000D02*
X249237500Y-101950000D01*
X249237500Y-101350000D02*
X249237500Y-100850000D01*
X249237500Y-101950000D02*
X249637500Y-101350000D01*
X249237500Y-102350000D02*
X249237500Y-101950000D01*
X249637500Y-101350000D02*
X248837500Y-101350000D01*
X249787500Y-101950000D02*
X248687500Y-101950000D01*
%TO.C,D85*%
X334562500Y-139450000D02*
X334962500Y-140050000D01*
X334962500Y-139450000D02*
X334962500Y-138950000D01*
X334962500Y-140050000D02*
X335362500Y-139450000D01*
X334962500Y-140450000D02*
X334962500Y-140050000D01*
X335362500Y-139450000D02*
X334562500Y-139450000D01*
X335512500Y-140050000D02*
X334412500Y-140050000D01*
%TO.C,D36*%
X91675000Y-82300000D02*
X92075000Y-82900000D01*
X92075000Y-82300000D02*
X92075000Y-81800000D01*
X92075000Y-82900000D02*
X92475000Y-82300000D01*
X92075000Y-83300000D02*
X92075000Y-82900000D01*
X92475000Y-82300000D02*
X91675000Y-82300000D01*
X92625000Y-82900000D02*
X91525000Y-82900000D01*
%TO.C,D87*%
X372662500Y-139450000D02*
X373062500Y-140050000D01*
X373062500Y-139450000D02*
X373062500Y-138950000D01*
X373062500Y-140050000D02*
X373462500Y-139450000D01*
X373062500Y-140450000D02*
X373062500Y-140050000D01*
X373462500Y-139450000D02*
X372662500Y-139450000D01*
X373612500Y-140050000D02*
X372512500Y-140050000D01*
%TO.C,D3*%
X101200000Y-34675000D02*
X101600000Y-35275000D01*
X101600000Y-34675000D02*
X101600000Y-34175000D01*
X101600000Y-35275000D02*
X102000000Y-34675000D01*
X101600000Y-35675000D02*
X101600000Y-35275000D01*
X102000000Y-34675000D02*
X101200000Y-34675000D01*
X102150000Y-35275000D02*
X101050000Y-35275000D01*
%TO.C,D14*%
X334562500Y-34675000D02*
X334962500Y-35275000D01*
X334962500Y-34675000D02*
X334962500Y-34175000D01*
X334962500Y-35275000D02*
X335362500Y-34675000D01*
X334962500Y-35675000D02*
X334962500Y-35275000D01*
X335362500Y-34675000D02*
X334562500Y-34675000D01*
X335512500Y-35275000D02*
X334412500Y-35275000D01*
%TO.C,D55*%
X134537500Y-101350000D02*
X134937500Y-101950000D01*
X134937500Y-101350000D02*
X134937500Y-100850000D01*
X134937500Y-101950000D02*
X135337500Y-101350000D01*
X134937500Y-102350000D02*
X134937500Y-101950000D01*
X135337500Y-101350000D02*
X134537500Y-101350000D01*
X135487500Y-101950000D02*
X134387500Y-101950000D01*
%TO.C,D62*%
X267887500Y-101350000D02*
X268287500Y-101950000D01*
X268287500Y-101350000D02*
X268287500Y-100850000D01*
X268287500Y-101950000D02*
X268687500Y-101350000D01*
X268287500Y-102350000D02*
X268287500Y-101950000D01*
X268687500Y-101350000D02*
X267887500Y-101350000D01*
X268837500Y-101950000D02*
X267737500Y-101950000D01*
%TO.C,D27*%
X234550000Y-63250000D02*
X234950000Y-63850000D01*
X234950000Y-63250000D02*
X234950000Y-62750000D01*
X234950000Y-63850000D02*
X235350000Y-63250000D01*
X234950000Y-64250000D02*
X234950000Y-63850000D01*
X235350000Y-63250000D02*
X234550000Y-63250000D01*
X235500000Y-63850000D02*
X234400000Y-63850000D01*
%TO.C,D30*%
X301225000Y-63250000D02*
X301625000Y-63850000D01*
X301625000Y-63250000D02*
X301625000Y-62750000D01*
X301625000Y-63850000D02*
X302025000Y-63250000D01*
X301625000Y-64250000D02*
X301625000Y-63850000D01*
X302025000Y-63250000D02*
X301225000Y-63250000D01*
X302175000Y-63850000D02*
X301075000Y-63850000D01*
%TO.C,D31*%
X334562500Y-63250000D02*
X334962500Y-63850000D01*
X334962500Y-63250000D02*
X334962500Y-62750000D01*
X334962500Y-63850000D02*
X335362500Y-63250000D01*
X334962500Y-64250000D02*
X334962500Y-63850000D01*
X335362500Y-63250000D02*
X334562500Y-63250000D01*
X335512500Y-63850000D02*
X334412500Y-63850000D01*
%TO.C,D77*%
X46431250Y-139450000D02*
X46831250Y-140050000D01*
X46831250Y-139450000D02*
X46831250Y-138950000D01*
X46831250Y-140050000D02*
X47231250Y-139450000D01*
X46831250Y-140450000D02*
X46831250Y-140050000D01*
X47231250Y-139450000D02*
X46431250Y-139450000D01*
X47381250Y-140050000D02*
X46281250Y-140050000D01*
%TO.C,D66*%
X105962500Y-120400000D02*
X106362500Y-121000000D01*
X106362500Y-120400000D02*
X106362500Y-119900000D01*
X106362500Y-121000000D02*
X106762500Y-120400000D01*
X106362500Y-121400000D02*
X106362500Y-121000000D01*
X106762500Y-120400000D02*
X105962500Y-120400000D01*
X106912500Y-121000000D02*
X105812500Y-121000000D01*
%TO.C,D12*%
X291700000Y-34675000D02*
X292100000Y-35275000D01*
X292100000Y-34675000D02*
X292100000Y-34175000D01*
X292100000Y-35275000D02*
X292500000Y-34675000D01*
X292100000Y-35675000D02*
X292100000Y-35275000D01*
X292500000Y-34675000D02*
X291700000Y-34675000D01*
X292650000Y-35275000D02*
X291550000Y-35275000D01*
D12*
%TO.C,A0*%
X312845000Y-91600000D02*
X312845000Y-94090000D01*
X312845000Y-94090000D02*
X312845000Y-95437940D01*
X312845000Y-96362061D02*
X312845000Y-97365000D01*
X312845000Y-97365000D02*
X312845000Y-105835000D01*
X312845000Y-97700000D02*
X313761000Y-97700000D01*
X312845000Y-105500000D02*
X313761000Y-105500000D01*
X312845000Y-105835000D02*
X312845000Y-106837939D01*
X312845000Y-107762061D02*
X312845000Y-109110000D01*
X312845000Y-111600000D02*
X312845000Y-109110000D01*
X313265000Y-91020324D02*
X313265000Y-90510000D01*
X315385000Y-90990000D02*
X315385000Y-90510000D01*
X315385000Y-90990000D02*
X315805000Y-90990000D01*
X315385000Y-112210000D02*
X315805000Y-112210000D01*
X316149000Y-97700000D02*
X317365000Y-97700000D01*
X316149000Y-105500000D02*
X317365000Y-105500000D01*
X317365000Y-97700000D02*
X317365000Y-97996090D01*
X317365000Y-100353910D02*
X317365000Y-102846090D01*
X317365000Y-105203910D02*
X317365000Y-105500000D01*
X317925000Y-90990000D02*
X318345000Y-90990000D01*
X317925000Y-112210000D02*
X318345000Y-112210000D01*
X320465000Y-90990000D02*
X320885000Y-90990000D01*
X320465000Y-112210000D02*
X320885000Y-112210000D01*
X323005000Y-90990000D02*
X323425000Y-90990000D01*
X323005000Y-112210000D02*
X323425000Y-112210000D01*
X325545000Y-90990000D02*
X325965000Y-90990000D01*
X325545000Y-112210000D02*
X325965000Y-112210000D01*
X328085000Y-90990000D02*
X328505000Y-90990000D01*
X328085000Y-112210000D02*
X328505000Y-112210000D01*
X330625000Y-90990000D02*
X331045000Y-90990000D01*
X330625000Y-112210000D02*
X331045000Y-112210000D01*
X333165000Y-90990000D02*
X333585000Y-90990000D01*
X333165000Y-112210000D02*
X333585000Y-112210000D01*
X335705000Y-90990000D02*
X336125000Y-90990000D01*
X335705000Y-112210000D02*
X336125000Y-112210000D01*
X338245000Y-90990000D02*
X338665000Y-90990000D01*
X338245000Y-112210000D02*
X338665000Y-112210000D01*
X340785000Y-90990000D02*
X341205000Y-90990000D01*
X340785000Y-112210000D02*
X341205000Y-112210000D01*
X343325000Y-90990000D02*
X343745000Y-90990000D01*
X343325000Y-112210000D02*
X343745000Y-112210000D01*
X345865000Y-90990000D02*
X346285000Y-90990000D01*
X345865000Y-112210000D02*
X346285000Y-112210000D01*
X348405000Y-90990000D02*
X348825000Y-90990000D01*
X348405000Y-112210000D02*
X348825000Y-112210000D01*
X350945000Y-90990000D02*
X351365000Y-90990000D01*
X350945000Y-112210000D02*
X351365000Y-112210000D01*
X353485000Y-90990000D02*
X353905000Y-90990000D01*
X353485000Y-112210000D02*
X353905000Y-112210000D01*
X356025000Y-90990000D02*
X356445000Y-90990000D01*
X356025000Y-112210000D02*
X356445000Y-112210000D01*
X358565000Y-90990000D02*
X358985000Y-90990000D01*
X358565000Y-112210000D02*
X358985000Y-112210000D01*
X361105000Y-90990000D02*
X361525000Y-90990000D01*
X361105000Y-112210000D02*
X361525000Y-112210000D01*
X312845000Y-91600000D02*
G75*
G02*
X313265000Y-91020324I610051J-16D01*
G01*
X313265063Y-112179676D02*
G75*
G02*
X312845000Y-111600000I189937J579676D01*
G01*
X363644937Y-91020324D02*
G75*
G02*
X363945000Y-91236682I-189945J-579686D01*
G01*
X363945000Y-111963318D02*
G75*
G02*
X363644937Y-112179676I-490000J363318D01*
G01*
D11*
%TO.C,D73*%
X239312500Y-120400000D02*
X239712500Y-121000000D01*
X239712500Y-120400000D02*
X239712500Y-119900000D01*
X239712500Y-121000000D02*
X240112500Y-120400000D01*
X239712500Y-121400000D02*
X239712500Y-121000000D01*
X240112500Y-120400000D02*
X239312500Y-120400000D01*
X240262500Y-121000000D02*
X239162500Y-121000000D01*
%TO.C,D75*%
X294081250Y-120400000D02*
X294481250Y-121000000D01*
X294481250Y-120400000D02*
X294481250Y-119900000D01*
X294481250Y-121000000D02*
X294881250Y-120400000D01*
X294481250Y-121400000D02*
X294481250Y-121000000D01*
X294881250Y-120400000D02*
X294081250Y-120400000D01*
X295031250Y-121000000D02*
X293931250Y-121000000D01*
%TO.C,D29*%
X272650000Y-63250000D02*
X273050000Y-63850000D01*
X273050000Y-63250000D02*
X273050000Y-62750000D01*
X273050000Y-63850000D02*
X273450000Y-63250000D01*
X273050000Y-64250000D02*
X273050000Y-63850000D01*
X273450000Y-63250000D02*
X272650000Y-63250000D01*
X273600000Y-63850000D02*
X272500000Y-63850000D01*
%TO.C,D82*%
X263125000Y-139450000D02*
X263525000Y-140050000D01*
X263525000Y-139450000D02*
X263525000Y-138950000D01*
X263525000Y-140050000D02*
X263925000Y-139450000D01*
X263525000Y-140450000D02*
X263525000Y-140050000D01*
X263925000Y-139450000D02*
X263125000Y-139450000D01*
X264075000Y-140050000D02*
X262975000Y-140050000D01*
%TO.C,D6*%
X167875000Y-34675000D02*
X168275000Y-35275000D01*
X168275000Y-34675000D02*
X168275000Y-34175000D01*
X168275000Y-35275000D02*
X168675000Y-34675000D01*
X168275000Y-35675000D02*
X168275000Y-35275000D01*
X168675000Y-34675000D02*
X167875000Y-34675000D01*
X168825000Y-35275000D02*
X167725000Y-35275000D01*
%TO.C,D10*%
X253600000Y-34675000D02*
X254000000Y-35275000D01*
X254000000Y-34675000D02*
X254000000Y-34175000D01*
X254000000Y-35275000D02*
X254400000Y-34675000D01*
X254000000Y-35675000D02*
X254000000Y-35275000D01*
X254400000Y-34675000D02*
X253600000Y-34675000D01*
X254550000Y-35275000D02*
X253450000Y-35275000D01*
%TO.C,D41*%
X186925000Y-82300000D02*
X187325000Y-82900000D01*
X187325000Y-82300000D02*
X187325000Y-81800000D01*
X187325000Y-82900000D02*
X187725000Y-82300000D01*
X187325000Y-83300000D02*
X187325000Y-82900000D01*
X187725000Y-82300000D02*
X186925000Y-82300000D01*
X187875000Y-82900000D02*
X186775000Y-82900000D01*
%TO.C,D60*%
X229787500Y-101350000D02*
X230187500Y-101950000D01*
X230187500Y-101350000D02*
X230187500Y-100850000D01*
X230187500Y-101950000D02*
X230587500Y-101350000D01*
X230187500Y-102350000D02*
X230187500Y-101950000D01*
X230587500Y-101350000D02*
X229787500Y-101350000D01*
X230737500Y-101950000D02*
X229637500Y-101950000D01*
%TO.C,D81*%
X236931250Y-139450000D02*
X237331250Y-140050000D01*
X237331250Y-139450000D02*
X237331250Y-138950000D01*
X237331250Y-140050000D02*
X237731250Y-139450000D01*
X237331250Y-140450000D02*
X237331250Y-140050000D01*
X237731250Y-139450000D02*
X236931250Y-139450000D01*
X237881250Y-140050000D02*
X236781250Y-140050000D01*
%TO.C,D28*%
X253600000Y-63250000D02*
X254000000Y-63850000D01*
X254000000Y-63250000D02*
X254000000Y-62750000D01*
X254000000Y-63850000D02*
X254400000Y-63250000D01*
X254000000Y-64250000D02*
X254000000Y-63850000D01*
X254400000Y-63250000D02*
X253600000Y-63250000D01*
X254550000Y-63850000D02*
X253450000Y-63850000D01*
%TO.C,D46*%
X282175000Y-82300000D02*
X282575000Y-82900000D01*
X282575000Y-82300000D02*
X282575000Y-81800000D01*
X282575000Y-82900000D02*
X282975000Y-82300000D01*
X282575000Y-83300000D02*
X282575000Y-82900000D01*
X282975000Y-82300000D02*
X282175000Y-82300000D01*
X283125000Y-82900000D02*
X282025000Y-82900000D01*
%TO.C,D8*%
X205975000Y-34675000D02*
X206375000Y-35275000D01*
X206375000Y-34675000D02*
X206375000Y-34175000D01*
X206375000Y-35275000D02*
X206775000Y-34675000D01*
X206375000Y-35675000D02*
X206375000Y-35275000D01*
X206775000Y-34675000D02*
X205975000Y-34675000D01*
X206925000Y-35275000D02*
X205825000Y-35275000D01*
%TO.C,D65*%
X86912500Y-120400000D02*
X87312500Y-121000000D01*
X87312500Y-120400000D02*
X87312500Y-119900000D01*
X87312500Y-121000000D02*
X87712500Y-120400000D01*
X87312500Y-121400000D02*
X87312500Y-121000000D01*
X87712500Y-120400000D02*
X86912500Y-120400000D01*
X87862500Y-121000000D02*
X86762500Y-121000000D01*
%TO.C,D53*%
X96437500Y-101350000D02*
X96837500Y-101950000D01*
X96837500Y-101350000D02*
X96837500Y-100850000D01*
X96837500Y-101950000D02*
X97237500Y-101350000D01*
X96837500Y-102350000D02*
X96837500Y-101950000D01*
X97237500Y-101350000D02*
X96437500Y-101350000D01*
X97387500Y-101950000D02*
X96287500Y-101950000D01*
%TO.C,D78*%
X70243750Y-139450000D02*
X70643750Y-140050000D01*
X70643750Y-139450000D02*
X70643750Y-138950000D01*
X70643750Y-140050000D02*
X71043750Y-139450000D01*
X70643750Y-140450000D02*
X70643750Y-140050000D01*
X71043750Y-139450000D02*
X70243750Y-139450000D01*
X71193750Y-140050000D02*
X70093750Y-140050000D01*
%TO.C,D13*%
X310750000Y-34675000D02*
X311150000Y-35275000D01*
X311150000Y-34675000D02*
X311150000Y-34175000D01*
X311150000Y-35275000D02*
X311550000Y-34675000D01*
X311150000Y-35675000D02*
X311150000Y-35275000D01*
X311550000Y-34675000D02*
X310750000Y-34675000D01*
X311700000Y-35275000D02*
X310600000Y-35275000D01*
%TO.C,D69*%
X163112500Y-120400000D02*
X163512500Y-121000000D01*
X163512500Y-120400000D02*
X163512500Y-119900000D01*
X163512500Y-121000000D02*
X163912500Y-120400000D01*
X163512500Y-121400000D02*
X163512500Y-121000000D01*
X163912500Y-120400000D02*
X163112500Y-120400000D01*
X164062500Y-121000000D02*
X162962500Y-121000000D01*
%TO.C,D52*%
X77387500Y-101350000D02*
X77787500Y-101950000D01*
X77787500Y-101350000D02*
X77787500Y-100850000D01*
X77787500Y-101950000D02*
X78187500Y-101350000D01*
X77787500Y-102350000D02*
X77787500Y-101950000D01*
X78187500Y-101350000D02*
X77387500Y-101350000D01*
X78337500Y-101950000D02*
X77237500Y-101950000D01*
%TO.C,D45*%
X263125000Y-82300000D02*
X263525000Y-82900000D01*
X263525000Y-82300000D02*
X263525000Y-81800000D01*
X263525000Y-82900000D02*
X263925000Y-82300000D01*
X263525000Y-83300000D02*
X263525000Y-82900000D01*
X263925000Y-82300000D02*
X263125000Y-82300000D01*
X264075000Y-82900000D02*
X262975000Y-82900000D01*
%TO.C,D50*%
X372662500Y-82300000D02*
X373062500Y-82900000D01*
X373062500Y-82300000D02*
X373062500Y-81800000D01*
X373062500Y-82900000D02*
X373462500Y-82300000D01*
X373062500Y-83300000D02*
X373062500Y-82900000D01*
X373462500Y-82300000D02*
X372662500Y-82300000D01*
X373612500Y-82900000D02*
X372512500Y-82900000D01*
%TO.C,D80*%
X165493750Y-139450000D02*
X165893750Y-140050000D01*
X165893750Y-139450000D02*
X165893750Y-138950000D01*
X165893750Y-140050000D02*
X166293750Y-139450000D01*
X165893750Y-140450000D02*
X165893750Y-140050000D01*
X166293750Y-139450000D02*
X165493750Y-139450000D01*
X166443750Y-140050000D02*
X165343750Y-140050000D01*
%TO.C,D35*%
X72625000Y-82300000D02*
X73025000Y-82900000D01*
X73025000Y-82300000D02*
X73025000Y-81800000D01*
X73025000Y-82900000D02*
X73425000Y-82300000D01*
X73025000Y-83300000D02*
X73025000Y-82900000D01*
X73425000Y-82300000D02*
X72625000Y-82300000D01*
X73575000Y-82900000D02*
X72475000Y-82900000D01*
%TO.C,D23*%
X158350000Y-63250000D02*
X158750000Y-63850000D01*
X158750000Y-63250000D02*
X158750000Y-62750000D01*
X158750000Y-63850000D02*
X159150000Y-63250000D01*
X158750000Y-64250000D02*
X158750000Y-63850000D01*
X159150000Y-63250000D02*
X158350000Y-63250000D01*
X159300000Y-63850000D02*
X158200000Y-63850000D01*
%TO.C,D9*%
X225025000Y-34675000D02*
X225425000Y-35275000D01*
X225425000Y-34675000D02*
X225425000Y-34175000D01*
X225425000Y-35275000D02*
X225825000Y-34675000D01*
X225425000Y-35675000D02*
X225425000Y-35275000D01*
X225825000Y-34675000D02*
X225025000Y-34675000D01*
X225975000Y-35275000D02*
X224875000Y-35275000D01*
%TO.C,D76*%
X353612500Y-120400000D02*
X354012500Y-121000000D01*
X354012500Y-120400000D02*
X354012500Y-119900000D01*
X354012500Y-121000000D02*
X354412500Y-120400000D01*
X354012500Y-121400000D02*
X354012500Y-121000000D01*
X354412500Y-120400000D02*
X353612500Y-120400000D01*
X354562500Y-121000000D02*
X353462500Y-121000000D01*
%TO.C,D72*%
X220262500Y-120400000D02*
X220662500Y-121000000D01*
X220662500Y-120400000D02*
X220662500Y-119900000D01*
X220662500Y-121000000D02*
X221062500Y-120400000D01*
X220662500Y-121400000D02*
X220662500Y-121000000D01*
X221062500Y-120400000D02*
X220262500Y-120400000D01*
X221212500Y-121000000D02*
X220112500Y-121000000D01*
%TO.C,D57*%
X172637500Y-101350000D02*
X173037500Y-101950000D01*
X173037500Y-101350000D02*
X173037500Y-100850000D01*
X173037500Y-101950000D02*
X173437500Y-101350000D01*
X173037500Y-102350000D02*
X173037500Y-101950000D01*
X173437500Y-101350000D02*
X172637500Y-101350000D01*
X173587500Y-101950000D02*
X172487500Y-101950000D01*
%TO.C,D1*%
X44050000Y-34675000D02*
X44450000Y-35275000D01*
X44450000Y-34675000D02*
X44450000Y-34175000D01*
X44450000Y-35275000D02*
X44850000Y-34675000D01*
X44450000Y-35675000D02*
X44450000Y-35275000D01*
X44850000Y-34675000D02*
X44050000Y-34675000D01*
X45000000Y-35275000D02*
X43900000Y-35275000D01*
%TO.C,D20*%
X101200000Y-63250000D02*
X101600000Y-63850000D01*
X101600000Y-63250000D02*
X101600000Y-62750000D01*
X101600000Y-63850000D02*
X102000000Y-63250000D01*
X101600000Y-64250000D02*
X101600000Y-63850000D01*
X102000000Y-63250000D02*
X101200000Y-63250000D01*
X102150000Y-63850000D02*
X101050000Y-63850000D01*
%TO.C,D21*%
X120250000Y-63250000D02*
X120650000Y-63850000D01*
X120650000Y-63250000D02*
X120650000Y-62750000D01*
X120650000Y-63850000D02*
X121050000Y-63250000D01*
X120650000Y-64250000D02*
X120650000Y-63850000D01*
X121050000Y-63250000D02*
X120250000Y-63250000D01*
X121200000Y-63850000D02*
X120100000Y-63850000D01*
%TO.C,D32*%
X353612500Y-63250000D02*
X354012500Y-63850000D01*
X354012500Y-63250000D02*
X354012500Y-62750000D01*
X354012500Y-63850000D02*
X354412500Y-63250000D01*
X354012500Y-64250000D02*
X354012500Y-63850000D01*
X354412500Y-63250000D02*
X353612500Y-63250000D01*
X354562500Y-63850000D02*
X353462500Y-63850000D01*
%TO.C,D58*%
X191687500Y-101350000D02*
X192087500Y-101950000D01*
X192087500Y-101350000D02*
X192087500Y-100850000D01*
X192087500Y-101950000D02*
X192487500Y-101350000D01*
X192087500Y-102350000D02*
X192087500Y-101950000D01*
X192487500Y-101350000D02*
X191687500Y-101350000D01*
X192637500Y-101950000D02*
X191537500Y-101950000D01*
%TO.C,D43*%
X225025000Y-82300000D02*
X225425000Y-82900000D01*
X225425000Y-82300000D02*
X225425000Y-81800000D01*
X225425000Y-82900000D02*
X225825000Y-82300000D01*
X225425000Y-83300000D02*
X225425000Y-82900000D01*
X225825000Y-82300000D02*
X225025000Y-82300000D01*
X225975000Y-82900000D02*
X224875000Y-82900000D01*
%TO.C,D47*%
X305987500Y-82300000D02*
X306387500Y-82900000D01*
X306387500Y-82300000D02*
X306387500Y-81800000D01*
X306387500Y-82900000D02*
X306787500Y-82300000D01*
X306387500Y-83300000D02*
X306387500Y-82900000D01*
X306787500Y-82300000D02*
X305987500Y-82300000D01*
X306937500Y-82900000D02*
X305837500Y-82900000D01*
%TO.C,D18*%
X63100000Y-63250000D02*
X63500000Y-63850000D01*
X63500000Y-63250000D02*
X63500000Y-62750000D01*
X63500000Y-63850000D02*
X63900000Y-63250000D01*
X63500000Y-64250000D02*
X63500000Y-63850000D01*
X63900000Y-63250000D02*
X63100000Y-63250000D01*
X64050000Y-63850000D02*
X62950000Y-63850000D01*
%TO.C,D64*%
X55956250Y-120400000D02*
X56356250Y-121000000D01*
X56356250Y-120400000D02*
X56356250Y-119900000D01*
X56356250Y-121000000D02*
X56756250Y-120400000D01*
X56356250Y-121400000D02*
X56356250Y-121000000D01*
X56756250Y-120400000D02*
X55956250Y-120400000D01*
X56906250Y-121000000D02*
X55806250Y-121000000D01*
%TO.C,D49*%
X353612500Y-82300000D02*
X354012500Y-82900000D01*
X354012500Y-82300000D02*
X354012500Y-81800000D01*
X354012500Y-82900000D02*
X354412500Y-82300000D01*
X354012500Y-83300000D02*
X354012500Y-82900000D01*
X354412500Y-82300000D02*
X353612500Y-82300000D01*
X354562500Y-82900000D02*
X353462500Y-82900000D01*
%TO.C,D16*%
X372662500Y-34675000D02*
X373062500Y-35275000D01*
X373062500Y-34675000D02*
X373062500Y-34175000D01*
X373062500Y-35275000D02*
X373462500Y-34675000D01*
X373062500Y-35675000D02*
X373062500Y-35275000D01*
X373462500Y-34675000D02*
X372662500Y-34675000D01*
X373612500Y-35275000D02*
X372512500Y-35275000D01*
%TO.C,D51*%
X51193750Y-101350000D02*
X51593750Y-101950000D01*
X51593750Y-101350000D02*
X51593750Y-100850000D01*
X51593750Y-101950000D02*
X51993750Y-101350000D01*
X51593750Y-102350000D02*
X51593750Y-101950000D01*
X51993750Y-101350000D02*
X51193750Y-101350000D01*
X52143750Y-101950000D02*
X51043750Y-101950000D01*
%TO.C,D15*%
X352500000Y-34675000D02*
X352900000Y-35275000D01*
X352900000Y-34675000D02*
X352900000Y-34175000D01*
X352900000Y-35275000D02*
X353300000Y-34675000D01*
X352900000Y-35675000D02*
X352900000Y-35275000D01*
X353300000Y-34675000D02*
X352500000Y-34675000D01*
X353450000Y-35275000D02*
X352350000Y-35275000D01*
%TO.C,D39*%
X148825000Y-82300000D02*
X149225000Y-82900000D01*
X149225000Y-82300000D02*
X149225000Y-81800000D01*
X149225000Y-82900000D02*
X149625000Y-82300000D01*
X149225000Y-83300000D02*
X149225000Y-82900000D01*
X149625000Y-82300000D02*
X148825000Y-82300000D01*
X149775000Y-82900000D02*
X148675000Y-82900000D01*
%TO.C,D59*%
X210737500Y-101350000D02*
X211137500Y-101950000D01*
X211137500Y-101350000D02*
X211137500Y-100850000D01*
X211137500Y-101950000D02*
X211537500Y-101350000D01*
X211137500Y-102350000D02*
X211137500Y-101950000D01*
X211537500Y-101350000D02*
X210737500Y-101350000D01*
X211687500Y-101950000D02*
X210587500Y-101950000D01*
%TO.C,D67*%
X125012500Y-120400000D02*
X125412500Y-121000000D01*
X125412500Y-120400000D02*
X125412500Y-119900000D01*
X125412500Y-121000000D02*
X125812500Y-120400000D01*
X125412500Y-121400000D02*
X125412500Y-121000000D01*
X125812500Y-120400000D02*
X125012500Y-120400000D01*
X125962500Y-121000000D02*
X124862500Y-121000000D01*
%TO.C,D34*%
X48812500Y-82300000D02*
X49212500Y-82900000D01*
X49212500Y-82300000D02*
X49212500Y-81800000D01*
X49212500Y-82900000D02*
X49612500Y-82300000D01*
X49212500Y-83300000D02*
X49212500Y-82900000D01*
X49612500Y-82300000D02*
X48812500Y-82300000D01*
X49762500Y-82900000D02*
X48662500Y-82900000D01*
%TO.C,D63*%
X298843750Y-101350000D02*
X299243750Y-101950000D01*
X299243750Y-101350000D02*
X299243750Y-100850000D01*
X299243750Y-101950000D02*
X299643750Y-101350000D01*
X299243750Y-102350000D02*
X299243750Y-101950000D01*
X299643750Y-101350000D02*
X298843750Y-101350000D01*
X299793750Y-101950000D02*
X298693750Y-101950000D01*
%TO.C,D24*%
X177400000Y-63250000D02*
X177800000Y-63850000D01*
X177800000Y-63250000D02*
X177800000Y-62750000D01*
X177800000Y-63850000D02*
X178200000Y-63250000D01*
X177800000Y-64250000D02*
X177800000Y-63850000D01*
X178200000Y-63250000D02*
X177400000Y-63250000D01*
X178350000Y-63850000D02*
X177250000Y-63850000D01*
%TO.C,D68*%
X144062500Y-120400000D02*
X144462500Y-121000000D01*
X144462500Y-120400000D02*
X144462500Y-119900000D01*
X144462500Y-121000000D02*
X144862500Y-120400000D01*
X144462500Y-121400000D02*
X144462500Y-121000000D01*
X144862500Y-120400000D02*
X144062500Y-120400000D01*
X145012500Y-121000000D02*
X143912500Y-121000000D01*
%TO.C,D84*%
X308368750Y-139450000D02*
X308768750Y-140050000D01*
X308768750Y-139450000D02*
X308768750Y-138950000D01*
X308768750Y-140050000D02*
X309168750Y-139450000D01*
X308768750Y-140450000D02*
X308768750Y-140050000D01*
X309168750Y-139450000D02*
X308368750Y-139450000D01*
X309318750Y-140050000D02*
X308218750Y-140050000D01*
%TO.C,D5*%
X139300000Y-34675000D02*
X139700000Y-35275000D01*
X139700000Y-34675000D02*
X139700000Y-34175000D01*
X139700000Y-35275000D02*
X140100000Y-34675000D01*
X139700000Y-35675000D02*
X139700000Y-35275000D01*
X140100000Y-34675000D02*
X139300000Y-34675000D01*
X140250000Y-35275000D02*
X139150000Y-35275000D01*
%TO.C,D44*%
X244075000Y-82300000D02*
X244475000Y-82900000D01*
X244475000Y-82300000D02*
X244475000Y-81800000D01*
X244475000Y-82900000D02*
X244875000Y-82300000D01*
X244475000Y-83300000D02*
X244475000Y-82900000D01*
X244875000Y-82300000D02*
X244075000Y-82300000D01*
X245025000Y-82900000D02*
X243925000Y-82900000D01*
%TO.C,D56*%
X153587500Y-101350000D02*
X153987500Y-101950000D01*
X153987500Y-101350000D02*
X153987500Y-100850000D01*
X153987500Y-101950000D02*
X154387500Y-101350000D01*
X153987500Y-102350000D02*
X153987500Y-101950000D01*
X154387500Y-101350000D02*
X153587500Y-101350000D01*
X154537500Y-101950000D02*
X153437500Y-101950000D01*
%TO.C,D74*%
X258362500Y-120400000D02*
X258762500Y-121000000D01*
X258762500Y-120400000D02*
X258762500Y-119900000D01*
X258762500Y-121000000D02*
X259162500Y-120400000D01*
X258762500Y-121400000D02*
X258762500Y-121000000D01*
X259162500Y-120400000D02*
X258362500Y-120400000D01*
X259312500Y-121000000D02*
X258212500Y-121000000D01*
%TO.C,D86*%
X353612500Y-139450000D02*
X354012500Y-140050000D01*
X354012500Y-139450000D02*
X354012500Y-138950000D01*
X354012500Y-140050000D02*
X354412500Y-139450000D01*
X354012500Y-140450000D02*
X354012500Y-140050000D01*
X354412500Y-139450000D02*
X353612500Y-139450000D01*
X354562500Y-140050000D02*
X353462500Y-140050000D01*
%TO.C,D79*%
X94056250Y-139450000D02*
X94456250Y-140050000D01*
X94456250Y-139450000D02*
X94456250Y-138950000D01*
X94456250Y-140050000D02*
X94856250Y-139450000D01*
X94456250Y-140450000D02*
X94456250Y-140050000D01*
X94856250Y-139450000D02*
X94056250Y-139450000D01*
X95006250Y-140050000D02*
X93906250Y-140050000D01*
%TO.C,D70*%
X182162500Y-120400000D02*
X182562500Y-121000000D01*
X182562500Y-120400000D02*
X182562500Y-119900000D01*
X182562500Y-121000000D02*
X182962500Y-120400000D01*
X182562500Y-121400000D02*
X182562500Y-121000000D01*
X182962500Y-120400000D02*
X182162500Y-120400000D01*
X183112500Y-121000000D02*
X182012500Y-121000000D01*
%TO.C,D48*%
X334562500Y-82300000D02*
X334962500Y-82900000D01*
X334962500Y-82300000D02*
X334962500Y-81800000D01*
X334962500Y-82900000D02*
X335362500Y-82300000D01*
X334962500Y-83300000D02*
X334962500Y-82900000D01*
X335362500Y-82300000D02*
X334562500Y-82300000D01*
X335512500Y-82900000D02*
X334412500Y-82900000D01*
%TO.C,D17*%
X44050000Y-63250000D02*
X44450000Y-63850000D01*
X44450000Y-63250000D02*
X44450000Y-62750000D01*
X44450000Y-63850000D02*
X44850000Y-63250000D01*
X44450000Y-64250000D02*
X44450000Y-63850000D01*
X44850000Y-63250000D02*
X44050000Y-63250000D01*
X45000000Y-63850000D02*
X43900000Y-63850000D01*
%TO.C,D7*%
X186925000Y-34675000D02*
X187325000Y-35275000D01*
X187325000Y-34675000D02*
X187325000Y-34175000D01*
X187325000Y-35275000D02*
X187725000Y-34675000D01*
X187325000Y-35675000D02*
X187325000Y-35275000D01*
X187725000Y-34675000D02*
X186925000Y-34675000D01*
X187875000Y-35275000D02*
X186775000Y-35275000D01*
%TO.C,D40*%
X167875000Y-82300000D02*
X168275000Y-82900000D01*
X168275000Y-82300000D02*
X168275000Y-81800000D01*
X168275000Y-82900000D02*
X168675000Y-82300000D01*
X168275000Y-83300000D02*
X168275000Y-82900000D01*
X168675000Y-82300000D02*
X167875000Y-82300000D01*
X168825000Y-82900000D02*
X167725000Y-82900000D01*
%TO.C,D83*%
X284556250Y-139450000D02*
X284956250Y-140050000D01*
X284956250Y-139450000D02*
X284956250Y-138950000D01*
X284956250Y-140050000D02*
X285356250Y-139450000D01*
X284956250Y-140450000D02*
X284956250Y-140050000D01*
X285356250Y-139450000D02*
X284556250Y-139450000D01*
X285506250Y-140050000D02*
X284406250Y-140050000D01*
%TD*%
M02*
