M48
; DRILL file {KiCad 9.0.6} date 2026-02-03T01:19:27-0600
; FORMAT={-:-/ absolute / metric / decimal}
; #@! TF.CreationDate,2026-02-03T01:19:27-06:00
; #@! TF.GenerationSoftware,Kicad,Pcbnew,9.0.6
; #@! TF.FileFunction,Plated,1,2,PTH
FMAT,2
METRIC
; #@! TA.AperFunction,Plated,PTH,ViaDrill
T1C0.300
; #@! TA.AperFunction,Plated,PTH,ComponentDrill
T2C0.800
; #@! TA.AperFunction,Plated,PTH,ComponentDrill
T3C1.000
; #@! TA.AperFunction,Plated,PTH,ComponentDrill
T4C1.500
%
G90
G05
T1
X273.558Y-91.694
X314.325Y-111.29
X315.976Y-127.254
X319.405Y-91.91
X319.405Y-111.29
X321.564Y-97.536
X332.105Y-91.91
X342.265Y-91.91
X344.805Y-91.91
X344.805Y-111.29
X347.472Y-91.948
X349.885Y-91.91
X352.425Y-91.91
X354.965Y-91.91
X357.505Y-91.91
X357.505Y-111.29
X360.045Y-91.91
X361.442Y-129.286
T2
X44.45Y-31.115
X44.45Y-38.735
X44.45Y-59.69
X44.45Y-67.31
X46.831Y-135.89
X46.831Y-143.51
X49.212Y-78.74
X49.212Y-86.36
X51.594Y-97.79
X51.594Y-105.41
X56.356Y-116.84
X56.356Y-124.46
X63.5Y-59.69
X63.5Y-67.31
X70.644Y-135.89
X70.644Y-143.51
X73.025Y-78.74
X73.025Y-86.36
X77.787Y-97.79
X77.787Y-105.41
X82.55Y-31.115
X82.55Y-38.735
X82.55Y-59.69
X82.55Y-67.31
X87.312Y-116.84
X87.312Y-124.46
X92.075Y-78.74
X92.075Y-86.36
X94.456Y-135.89
X94.456Y-143.51
X96.837Y-97.79
X96.837Y-105.41
X101.6Y-31.115
X101.6Y-38.735
X101.6Y-59.69
X101.6Y-67.31
X106.362Y-116.84
X106.362Y-124.46
X111.125Y-78.74
X111.125Y-86.36
X115.887Y-97.79
X115.887Y-105.41
X120.65Y-31.115
X120.65Y-38.735
X120.65Y-59.69
X120.65Y-67.31
X125.412Y-116.84
X125.412Y-124.46
X130.175Y-78.74
X130.175Y-86.36
X134.938Y-97.79
X134.938Y-105.41
X139.7Y-31.115
X139.7Y-38.735
X139.7Y-59.69
X139.7Y-67.31
X144.463Y-116.84
X144.463Y-124.46
X149.225Y-78.74
X149.225Y-86.36
X153.987Y-97.79
X153.987Y-105.41
X158.75Y-59.69
X158.75Y-67.31
X163.512Y-116.84
X163.512Y-124.46
X165.894Y-135.89
X165.894Y-143.51
X168.275Y-31.115
X168.275Y-38.735
X168.275Y-78.74
X168.275Y-86.36
X173.037Y-97.79
X173.037Y-105.41
X177.8Y-59.69
X177.8Y-67.31
X182.562Y-116.84
X182.562Y-124.46
X187.325Y-31.115
X187.325Y-38.735
X187.325Y-78.74
X187.325Y-86.36
X192.087Y-97.79
X192.087Y-105.41
X196.85Y-59.69
X196.85Y-67.31
X201.612Y-116.84
X201.612Y-124.46
X206.375Y-31.115
X206.375Y-38.735
X206.375Y-78.74
X206.375Y-86.36
X211.137Y-97.79
X211.137Y-105.41
X215.9Y-59.69
X215.9Y-67.31
X220.662Y-116.84
X220.662Y-124.46
X225.425Y-31.115
X225.425Y-38.735
X225.425Y-78.74
X225.425Y-86.36
X230.188Y-97.79
X230.188Y-105.41
X234.95Y-59.69
X234.95Y-67.31
X237.331Y-135.89
X237.331Y-143.51
X239.712Y-116.84
X239.712Y-124.46
X244.475Y-78.74
X244.475Y-86.36
X249.237Y-97.79
X249.237Y-105.41
X254.0Y-31.115
X254.0Y-38.735
X254.0Y-59.69
X254.0Y-67.31
X258.762Y-116.84
X258.762Y-124.46
X263.525Y-78.74
X263.525Y-86.36
X263.525Y-135.89
X263.525Y-143.51
X268.287Y-97.79
X268.287Y-105.41
X273.05Y-31.115
X273.05Y-38.735
X273.05Y-59.69
X273.05Y-67.31
X282.575Y-78.74
X282.575Y-86.36
X284.956Y-135.89
X284.956Y-143.51
X292.1Y-31.115
X292.1Y-38.735
X294.481Y-116.84
X294.481Y-124.46
X299.244Y-97.79
X299.244Y-105.41
X301.625Y-59.69
X301.625Y-67.31
X306.387Y-78.74
X306.387Y-86.36
X308.769Y-135.89
X308.769Y-143.51
X311.15Y-31.115
X311.15Y-38.735
X334.962Y-31.115
X334.962Y-38.735
X334.962Y-59.69
X334.962Y-67.31
X334.962Y-78.74
X334.962Y-86.36
X334.962Y-135.89
X334.962Y-143.51
X352.9Y-31.115
X352.9Y-38.735
X354.012Y-59.69
X354.012Y-67.31
X354.012Y-78.74
X354.012Y-86.36
X354.012Y-116.84
X354.012Y-124.46
X354.012Y-135.89
X354.012Y-143.51
X373.062Y-31.115
X373.062Y-38.735
X373.062Y-59.69
X373.062Y-67.31
X373.062Y-78.74
X373.062Y-86.36
X373.062Y-135.89
X373.062Y-143.51
T3
X344.155Y-102.184
X344.155Y-104.724
X344.155Y-107.264
X356.037Y-32.425
X356.037Y-34.925
X356.037Y-37.425
X369.0Y-116.38
X369.0Y-118.92
X369.0Y-121.46
X369.0Y-124.0
X370.537Y-32.425
X370.537Y-37.425
T4
X31.115Y-60.96
X31.225Y-32.45
X33.496Y-137.16
X35.877Y-80.01
X37.465Y-58.42
X37.575Y-29.91
X38.39Y-99.06
X39.846Y-134.62
X42.227Y-77.47
X43.021Y-118.11
X44.74Y-96.52
X49.371Y-115.57
X50.165Y-60.96
X56.515Y-58.42
X57.309Y-137.16
X59.69Y-80.01
X63.659Y-134.62
X64.453Y-99.06
X66.04Y-77.47
X69.215Y-32.385
X69.215Y-60.96
X70.802Y-96.52
X73.977Y-118.11
X75.565Y-29.845
X75.565Y-58.42
X78.74Y-80.01
X80.328Y-115.57
X81.121Y-137.16
X83.502Y-99.06
X85.09Y-77.47
X87.471Y-134.62
X88.265Y-32.385
X88.265Y-60.96
X89.852Y-96.52
X93.027Y-118.11
X94.615Y-29.845
X94.615Y-58.42
X97.79Y-80.01
X99.377Y-115.57
X102.552Y-99.06
X104.14Y-77.47
X107.315Y-32.385
X107.315Y-60.96
X108.902Y-96.52
X112.078Y-118.11
X113.665Y-29.845
X113.665Y-58.42
X116.84Y-80.01
X118.427Y-115.57
X121.602Y-99.06
X123.19Y-77.47
X126.365Y-32.385
X126.365Y-60.96
X127.953Y-96.52
X131.127Y-118.11
X132.715Y-29.845
X132.715Y-58.42
X135.89Y-80.01
X137.477Y-115.57
X140.653Y-99.06
X142.24Y-77.47
X145.415Y-60.96
X147.002Y-96.52
X150.177Y-118.11
X151.765Y-58.42
X152.559Y-137.16
X154.94Y-32.385
X154.94Y-80.01
X156.528Y-115.57
X158.909Y-134.62
X159.702Y-99.06
X161.29Y-29.845
X161.29Y-77.47
X164.465Y-60.96
X166.052Y-96.52
X169.227Y-118.11
X170.815Y-58.42
X173.99Y-32.385
X173.99Y-80.01
X175.577Y-115.57
X178.752Y-99.06
X180.34Y-29.845
X180.34Y-77.47
X183.515Y-60.96
X185.102Y-96.52
X188.278Y-118.11
X189.865Y-58.42
X193.04Y-32.385
X193.04Y-80.01
X194.627Y-115.57
X197.802Y-99.06
X199.39Y-29.845
X199.39Y-77.47
X202.565Y-60.96
X204.153Y-96.52
X207.327Y-118.11
X208.915Y-58.42
X212.09Y-32.385
X212.09Y-80.01
X213.677Y-115.57
X216.852Y-99.06
X218.44Y-29.845
X218.44Y-77.47
X221.615Y-60.96
X223.202Y-96.52
X223.996Y-137.16
X226.377Y-118.11
X227.965Y-58.42
X230.346Y-134.62
X231.14Y-80.01
X232.727Y-115.57
X235.903Y-99.06
X237.49Y-77.47
X240.665Y-32.385
X240.665Y-60.96
X242.252Y-96.52
X245.427Y-118.11
X247.015Y-29.845
X247.015Y-58.42
X247.809Y-137.16
X250.19Y-80.01
X251.777Y-115.57
X254.159Y-134.62
X254.952Y-99.06
X256.54Y-77.47
X259.715Y-32.385
X259.715Y-60.96
X261.303Y-96.52
X266.065Y-29.845
X266.065Y-58.42
X269.24Y-80.01
X271.621Y-137.16
X275.59Y-77.47
X277.971Y-134.62
X278.765Y-32.385
X281.146Y-118.11
X285.115Y-29.845
X285.909Y-99.06
X287.496Y-115.57
X288.29Y-60.96
X292.259Y-96.52
X293.053Y-80.01
X294.64Y-58.42
X295.434Y-137.16
X297.815Y-32.385
X299.402Y-77.47
X301.784Y-134.62
X304.165Y-29.845
X321.627Y-32.385
X321.627Y-60.96
X321.627Y-80.01
X321.627Y-137.16
X327.977Y-29.845
X327.977Y-58.42
X327.977Y-77.47
X327.977Y-134.62
X340.678Y-32.385
X340.678Y-60.96
X340.678Y-80.01
X340.678Y-118.11
X340.678Y-137.16
X347.027Y-29.845
X347.027Y-58.42
X347.027Y-77.47
X347.027Y-115.57
X347.027Y-134.62
X359.727Y-60.96
X359.727Y-80.01
X359.727Y-137.16
X366.077Y-58.42
X366.077Y-77.47
X366.077Y-134.62
T4
G00X362.887Y-29.325
M15
G01X364.188Y-29.325
M16
G05
G00X362.887Y-40.525
M15
G01X364.188Y-40.525
M16
G05
M30
