M48
; DRILL file {KiCad 9.0.6} date 2026-02-03T01:19:27-0600
; FORMAT={-:-/ absolute / metric / decimal}
; #@! TF.CreationDate,2026-02-03T01:19:27-06:00
; #@! TF.GenerationSoftware,Kicad,Pcbnew,9.0.6
; #@! TF.FileFunction,NonPlated,1,2,NPTH
FMAT,2
METRIC
; #@! TA.AperFunction,NonPlated,NPTH,ComponentDrill
T1C1.750
; #@! TA.AperFunction,NonPlated,NPTH,ComponentDrill
T2C1.850
; #@! TA.AperFunction,NonPlated,NPTH,ComponentDrill
T3C2.200
; #@! TA.AperFunction,NonPlated,NPTH,ComponentDrill
T4C4.000
%
G90
G05
T1
X29.845Y-63.5
X29.955Y-34.99
X32.226Y-139.7
X34.608Y-82.55
X37.12Y-101.6
X40.005Y-63.5
X40.115Y-34.99
X41.751Y-120.65
X42.386Y-139.7
X44.767Y-82.55
X47.28Y-101.6
X48.895Y-63.5
X51.911Y-120.65
X56.039Y-139.7
X58.42Y-82.55
X59.055Y-63.5
X63.182Y-101.6
X66.199Y-139.7
X67.945Y-34.925
X67.945Y-63.5
X68.58Y-82.55
X72.707Y-120.65
X73.343Y-101.6
X77.47Y-82.55
X78.105Y-34.925
X78.105Y-63.5
X79.851Y-139.7
X82.233Y-101.6
X82.867Y-120.65
X86.995Y-34.925
X86.995Y-63.5
X87.63Y-82.55
X90.011Y-139.7
X91.757Y-120.65
X92.392Y-101.6
X96.52Y-82.55
X97.155Y-34.925
X97.155Y-63.5
X101.282Y-101.6
X101.917Y-120.65
X106.045Y-34.925
X106.045Y-63.5
X106.68Y-82.55
X110.807Y-120.65
X111.442Y-101.6
X115.57Y-82.55
X116.205Y-34.925
X116.205Y-63.5
X120.332Y-101.6
X120.968Y-120.65
X125.095Y-34.925
X125.095Y-63.5
X125.73Y-82.55
X129.857Y-120.65
X130.493Y-101.6
X134.62Y-82.55
X135.255Y-34.925
X135.255Y-63.5
X139.382Y-101.6
X140.017Y-120.65
X144.145Y-63.5
X144.78Y-82.55
X148.907Y-120.65
X149.542Y-101.6
X151.289Y-139.7
X153.67Y-34.925
X153.67Y-82.55
X154.305Y-63.5
X158.433Y-101.6
X159.067Y-120.65
X161.449Y-139.7
X163.195Y-63.5
X163.83Y-34.925
X163.83Y-82.55
X167.957Y-120.65
X168.593Y-101.6
X172.72Y-34.925
X172.72Y-82.55
X173.355Y-63.5
X177.482Y-101.6
X178.117Y-120.65
X182.245Y-63.5
X182.88Y-34.925
X182.88Y-82.55
X187.007Y-120.65
X187.642Y-101.6
X191.77Y-34.925
X191.77Y-82.55
X192.405Y-63.5
X196.532Y-101.6
X197.167Y-120.65
X201.295Y-63.5
X201.93Y-34.925
X201.93Y-82.55
X206.058Y-120.65
X206.692Y-101.6
X210.82Y-34.925
X210.82Y-82.55
X211.455Y-63.5
X215.582Y-101.6
X216.218Y-120.65
X220.345Y-63.5
X220.98Y-34.925
X220.98Y-82.55
X222.726Y-139.7
X225.107Y-120.65
X225.742Y-101.6
X229.87Y-82.55
X230.505Y-63.5
X232.886Y-139.7
X234.632Y-101.6
X235.267Y-120.65
X239.395Y-34.925
X239.395Y-63.5
X240.03Y-82.55
X244.157Y-120.65
X244.792Y-101.6
X246.539Y-139.7
X248.92Y-82.55
X249.555Y-34.925
X249.555Y-63.5
X253.682Y-101.6
X254.317Y-120.65
X256.699Y-139.7
X258.445Y-34.925
X258.445Y-63.5
X259.08Y-82.55
X263.842Y-101.6
X267.97Y-82.55
X268.605Y-34.925
X268.605Y-63.5
X270.351Y-139.7
X277.495Y-34.925
X278.13Y-82.55
X279.876Y-120.65
X280.511Y-139.7
X284.639Y-101.6
X287.02Y-63.5
X287.655Y-34.925
X290.036Y-120.65
X291.782Y-82.55
X294.164Y-139.7
X294.799Y-101.6
X296.545Y-34.925
X297.18Y-63.5
X301.942Y-82.55
X304.324Y-139.7
X306.705Y-34.925
X320.357Y-34.925
X320.357Y-63.5
X320.357Y-82.55
X320.357Y-139.7
X330.517Y-34.925
X330.517Y-63.5
X330.517Y-82.55
X330.517Y-139.7
X339.407Y-34.925
X339.407Y-63.5
X339.407Y-82.55
X339.407Y-120.65
X339.407Y-139.7
X349.567Y-34.925
X349.567Y-63.5
X349.567Y-82.55
X349.567Y-120.65
X349.567Y-139.7
X358.457Y-63.5
X358.457Y-82.55
X358.457Y-139.7
X368.618Y-63.5
X368.618Y-82.55
X368.618Y-139.7
T2
X317.485Y-99.175
X317.485Y-104.025
T3
X314.455Y-98.875
X314.455Y-104.325
T4
X34.925Y-63.5
X35.035Y-34.99
X37.306Y-139.7
X39.688Y-82.55
X42.2Y-101.6
X46.831Y-120.65
X53.975Y-63.5
X61.119Y-139.7
X63.5Y-82.55
X68.263Y-101.6
X73.025Y-34.925
X73.025Y-63.5
X77.787Y-120.65
X82.55Y-82.55
X84.931Y-139.7
X87.312Y-101.6
X92.075Y-34.925
X92.075Y-63.5
X96.837Y-120.65
X101.6Y-82.55
X106.362Y-101.6
X111.125Y-34.925
X111.125Y-63.5
X115.887Y-120.65
X120.65Y-82.55
X125.412Y-101.6
X130.175Y-34.925
X130.175Y-63.5
X134.938Y-120.65
X139.7Y-82.55
X144.463Y-101.6
X149.225Y-63.5
X153.987Y-120.65
X156.369Y-139.7
X158.75Y-34.925
X158.75Y-82.55
X163.512Y-101.6
X168.275Y-63.5
X173.037Y-120.65
X177.8Y-34.925
X177.8Y-82.55
X182.562Y-101.6
X187.325Y-63.5
X192.087Y-120.65
X196.85Y-34.925
X196.85Y-82.55
X201.612Y-101.6
X206.375Y-63.5
X211.137Y-120.65
X215.9Y-34.925
X215.9Y-82.55
X220.662Y-101.6
X225.425Y-63.5
X227.806Y-139.7
X230.188Y-120.65
X234.95Y-82.55
X239.712Y-101.6
X244.475Y-34.925
X244.475Y-63.5
X249.237Y-120.65
X251.619Y-139.7
X254.0Y-82.55
X258.762Y-101.6
X263.525Y-34.925
X263.525Y-63.5
X273.05Y-82.55
X275.431Y-139.7
X282.575Y-34.925
X284.956Y-120.65
X289.719Y-101.6
X292.1Y-63.5
X296.863Y-82.55
X299.244Y-139.7
X301.625Y-34.925
X325.438Y-34.925
X325.438Y-63.5
X325.438Y-82.55
X325.438Y-139.7
X344.488Y-34.925
X344.488Y-63.5
X344.488Y-82.55
X344.488Y-120.65
X344.488Y-139.7
X363.537Y-63.5
X363.537Y-82.55
X363.537Y-139.7
M30
